<svg xmlns="http://www.w3.org/2000/svg" viewBox="0 0 874 223.13"><defs><style>.cls-1{fill:#fff;}</style></defs><title>Asset 2</title><g id="Layer_2" data-name="Layer 2"><g id="BACKGROUND"><path class="cls-1" d="M323.7,25.16h-8.86v12.1h-5.93V25.16h-8.65v1.76h-5.74V5.64h14.4V.18h5.93V5.64H329.5V26.93h-5.8Zm-23.44-4.57h8.65V10.17h-8.65Zm14.58,0h8.86V10.17h-8.86Z"/><path class="cls-1" d="M370.74,34.9H345.68v2.15h-5.52V1.31h36.22V36.75h-5.64Zm-25.06-4.29h25.06V5.52H345.68Zm23.73-1.8-22.39,0v-4.1h8.1V19.24h-6.79v-4h6.79V11.77h-7.26V7.69h20.88v4.08h-8.06v3.49h7.38v4H366q.9,1.27,3.1,4.55l-1.89.88h2.24Zm-8.74-4.14h3.69q-.14-.27-2.81-4.41l2.09-1h-3Z"/><path class="cls-1" d="M398.67,19.83a4.2,4.2,0,1,1-7.18-3,4.2,4.2,0,0,1,7.18,3Z"/><path class="cls-1" d="M440.19,35.66H420.67V37.1h-5.8V20.71q-1.48.49-3.08,1l-2-4.37a43.35,43.35,0,0,0,12.24-5h-9.84V7.94h15.28V6q-5.54.23-12.08.31l-.76-4.25q21.12-.37,27.93-2l2.65,4.1a72.13,72.13,0,0,1-12.08,1.52V7.94h15.61v4.33H439a43.75,43.75,0,0,0,12.41,4.37l-2.65,4.72q-1.56-.47-2.73-.86V37.1h-5.84ZM418.7,19.32h24.08a37.21,37.21,0,0,1-9.72-5.37v4.59h-5.33V14.21A37.21,37.21,0,0,1,418.7,19.32Zm21.49,6.48V23.24H420.67V25.8Zm-19.52,6h19.52V29.2H420.67Z"/><path class="cls-1" d="M466.19,15.59l-3.53,3.88q-2.26-2.58-6.3-6.48l3.26-3.57A72.82,72.82,0,0,1,466.19,15.59Zm-.82,7a44.29,44.29,0,0,1-4,14.42l-4.84-2a60.58,60.58,0,0,0,4-13.58Zm2.38-16.32L464.26,10a66.51,66.51,0,0,0-6.4-6.52L461.27,0A58.64,58.64,0,0,1,467.75,6.28Zm6.25,14a50.24,50.24,0,0,1-6.52,5l-2.56-3.73a37.15,37.15,0,0,0,4.91-3.92A21.69,21.69,0,0,0,472,15.26h-5.43V10.89h6.25V8h-4.9V3.75h4.9V0H478V3.75h6V0h5.29V3.75H495V8h-5.72v2.85H496v4.37h-6a30.53,30.53,0,0,0,7.85,6.54l-3.36,4.12a41.19,41.19,0,0,1-5.58-4.59v6.32l-12.43,0v3.77a1.05,1.05,0,0,0,1,1.1,36.12,36.12,0,0,0,4.59.17q2.91,0,4.46-.08a8.35,8.35,0,0,0,1.91-.23A1.21,1.21,0,0,0,489,32a3.54,3.54,0,0,0,.34-1.28,26.13,26.13,0,0,0,.14-3.28l4.57.76v4.57a3.64,3.64,0,0,1-.54,2A4.16,4.16,0,0,1,492,36.16a4.72,4.72,0,0,1-2,.62q-1,.08-3.81.17t-5.38.09a47.71,47.71,0,0,1-6.15-.27,5.12,5.12,0,0,1-2.83-1.27,3.57,3.57,0,0,1-1.07-2.73V24h13.1V21.35H474Zm3.94-5a20.49,20.49,0,0,1-1.44,2.21h9q-.84-1.11-1.54-2.21Zm.08-4.37h6V8h-6Z"/><path class="cls-1" d="M529.55,31.46,529.35,37q-1.8.06-2.42.06-6.09,0-9.5-2.12a12.7,12.7,0,0,1-4.89-5.13A15.31,15.31,0,0,1,511.06,23q0-7.63,6.93-13.82l-14.75.18V4.08H532.1V9.37h-8a19.73,19.73,0,0,0-4.89,5.76,14.78,14.78,0,0,0-2.14,7.59q0,8.86,10,8.86Q528.24,31.58,529.55,31.46ZM529.9,17l-2.93,1q-1.21-3-2.85-6.13l2.89-1Q528.92,14.56,529.9,17Zm6.17-.59-2.93,1.09q-1.54-3.79-2.73-6.17l2.81-1Q534.64,13,536.08,16.43Z"/><path class="cls-1" d="M561.4,36.91l-1.31-5.13q6.81-.9,10.24-3.75t3.43-8.51a11.44,11.44,0,0,0-2.4-7.6,9.74,9.74,0,0,0-6.62-3.35q-.37,11.48-3.74,18.61t-8.46,7.13A6.11,6.11,0,0,1,547.18,31a16,16,0,0,1-2-8.52V22A18.24,18.24,0,0,1,550,9.4a17.28,17.28,0,0,1,12.38-5.88h.72A16.69,16.69,0,0,1,574.9,7.74q4.58,4.21,4.58,11.45,0,7.94-4.62,12.43T561.4,36.91Zm-2-27.75A11.8,11.8,0,0,0,553,14a14.45,14.45,0,0,0-2.63,8.51,12.76,12.76,0,0,0,.65,4.16q.64,1.89,1.83,1.89,2.34,0,4.27-5.62A49.39,49.39,0,0,0,559.43,9.17Z"/><path class="cls-1" d="M96.3,81.33l-5.71,6.28Q86.94,83.43,80.4,77.12l5.28-5.78A118,118,0,0,1,96.3,81.33Zm.27,11q-2.66,14-8.43,23.67l-7.6-3.75A88.48,88.48,0,0,0,88.9,89.9Zm1.66-26-5.71,6A113.25,113.25,0,0,0,82.32,61.68l5.61-5.61A99.87,99.87,0,0,1,98.23,66.39Zm36,47H107.19v2.72H99V70.48h12.72V65.3H97.46l.07-7.47h47.58V65.3H130v5.18h12.42V116.1h-8.2Zm-27.06-16.8h27.06V92.36h-5.58a5.75,5.75,0,0,1-4.3-1.94,6.3,6.3,0,0,1-1.84-4.47v-9.1h-3.75q-1.16,10.92-7,17.6l-4.62-3.09Zm4.35-19.72h-4.35V89.44a24.14,24.14,0,0,0,4.28-11.82Zm-4.35,30.31h27.06v-4.28H107.19Zm12-36.69h3.32V65.3h-3.32Zm15,15V76.85H130V84q0,1.49,1.83,1.49Z"/><path class="cls-1" d="M169.94,78.88a50.66,50.66,0,0,1-11.29,7.44l-3.32-5.91a43.09,43.09,0,0,0,10.79-7h-8.57V67.32h12.38V56.6h7.77V67.32H189.2V73.4h-8.47a42.87,42.87,0,0,0,9,5.28L186,84.75a41.47,41.47,0,0,1-8.27-5.64v6.18h-7.77Zm4.62,24.77q-4.81,8-15.57,12.45l-3.52-6.67q10.26-4.52,13-11.22H157.62V91.39h12.19V86.58h7.9v4.81h10.92V98.2h-9.06a25,25,0,0,0,8.33,7.6L182.72,112A32,32,0,0,1,174.56,103.65ZM169,65.43l-6.84,1.76-3.29-7.94,6.81-1.59Zm19.79-6.54L185,67.06l-6.47-1.43,3.35-8Zm13.88,49.44a33.75,33.75,0,0,1-7.09,4.93,42,42,0,0,1-7.79,3.37l-3.42-6.18a36.36,36.36,0,0,0,11.16-5.78h-4.68V68.28h8.7q.33-1.16,1.1-4H189.07V57.89h31.48v6.38H208.69l-1.63,4h10.69v36.39h-5.21a45,45,0,0,0,10.09,5.58l-4,6.38a38.62,38.62,0,0,1-6.82-3.75,41.3,41.3,0,0,1-6-4.68l2.86-3.52h-9.06Zm6.81-29.65V74.26H199.06v4.42Zm-10.39,9.66h10.39V83.92H199.06Zm10.39,5.45H199.06v4.68h10.39Z"/><path class="cls-1" d="M253.57,88.21a6.8,6.8,0,1,1-2-4.81A6.56,6.56,0,0,1,253.57,88.21Z"/><path class="cls-1" d="M301.51,72.07V73.7q0,6.81-.23,11.31a42,42,0,0,1-1.71,9.56,30.89,30.89,0,0,1-4.63,9.45,35.54,35.54,0,0,1-7.25,7.52,33.88,33.88,0,0,1-9.55,5l-2.86-8q9.86-3.82,13.36-10.86t3.5-19.22l-.07-6.37Zm24.64-9.16a43.14,43.14,0,0,1-2.79,8.85,44.83,44.83,0,0,1-7.35,12,49.86,49.86,0,0,1-9.51,9.11L301.38,86a37.7,37.7,0,0,0,8.17-7.6,45,45,0,0,0,6.08-9.46h-40V60.38h48Z"/><path class="cls-1" d="M355.53,78.68q.07,15.61-4.1,24.45a31.19,31.19,0,0,1-12.8,13.9l-4.45-8.1a23,23,0,0,0,8.95-10.54q3.14-7,3.14-21.27V61.48h9.26ZM391,89.37a55.86,55.86,0,0,1-10.79,16.83,33.46,33.46,0,0,1-15,9.6l-3.32-3.25v-53h9.26v43.33q7.77-5.78,13.08-19.16Z"/><path class="cls-1" d="M442.54,113.77h-42.4v-8.9h32.17V72H400.61V63.24h41.94Z"/><path class="cls-1" d="M509,92.12H460.2V83.29H509Z"/><path class="cls-1" d="M542.8,78.68q.07,15.61-4.1,24.45A31.19,31.19,0,0,1,525.9,117l-4.45-8.1a23,23,0,0,0,8.95-10.54q3.14-7,3.14-21.27V61.48h9.26ZM578.3,89.37a55.86,55.86,0,0,1-10.79,16.83,33.46,33.46,0,0,1-15,9.6l-3.32-3.25v-53h9.26v43.33q7.77-5.78,13.08-19.16Z"/><path class="cls-1" d="M625.11,113.91,595,116.63l-1.23-7.14q3.12-.17,7.84-.46V105.8a132.81,132.81,0,0,1-13.08,3.09l-2.22-6.74a102.83,102.83,0,0,0,17.8-4.62H589V90.93h25.3V87.48h9.23v3.45h26v6.61H643.6l4.58,3.72a59.56,59.56,0,0,1-9.73,4.62A99.37,99.37,0,0,0,652,109.29l-4.55,7.21q-20.79-3.52-30-17.76a70.17,70.17,0,0,1-6.84,3.42v6.24q10.39-.8,14.28-1.29ZM626,81a4.5,4.5,0,0,1-1.76,3.72,6.84,6.84,0,0,1-4.38,1.39H615l-.66-5.18H617q1.43,0,1.43-1.1V78.54h-5.35V89.1h-8.8V78.54h-5.08v8.3h-8.3V74.13h13.38V71.9H588.62V67.32h3.09L588,65.16a39.28,39.28,0,0,0,7.54-9l7.21,1.29q-.83,1.66-1.46,2.72h3V56.1h8.8v4.08h12V65h-12v2.29H627.2V71.9H613.06v2.22H626ZM597.42,65q-1.26,1.26-2.42,2.29h9.26V65ZM640,97.54H626.14a41.48,41.48,0,0,0,4.88,4.32A94,94,0,0,0,640,97.54ZM636.43,79h-8V58h8Zm11.16,4a5,5,0,0,1-2.11,4.15,8.09,8.09,0,0,1-5.1,1.63h-7.84l-1-7.34h5.84q1.69,0,1.69-1.36V55.9h8.5Z"/><path class="cls-1" d="M682.41,114h-9.33v2.32h-9V86.85h27.53V116.3h-9.16ZM716.34,82.3h-46V58.36h46Zm-43.26,24.34h9.33V94.32h-9.33Zm33.34-31.54V65.5h-26.2v9.6Zm8,38.88H705v2.32h-9.33V86.85h28.16V116.3h-9.4ZM705,106.63h9.43V94.32H705Z"/><path class="cls-1" d="M764.32,115.86l-2.12-8.3q11-1.46,16.58-6.08t5.56-13.78q0-7.67-3.88-12.3A15.76,15.76,0,0,0,769.73,70q-.6,18.59-6.06,30.13T750,111.65q-5.38,0-8.68-5.36T738,92.49v-.83a29.54,29.54,0,0,1,8-20.34,28,28,0,0,1,20-9.51h1.16q11.62,0,19,6.82t7.42,18.54q0,12.85-7.49,20.12T764.32,115.86Zm-3.19-44.92a19.1,19.1,0,0,0-10.34,7.84,23.4,23.4,0,0,0-4.27,13.78,20.7,20.7,0,0,0,1,6.74q1,3.05,3,3.05,3.79,0,6.91-9.1T761.13,70.94Z"/><path class="cls-1" d="M212.86,191.55l-1.49,7.07q-.53,0-1.39,0l-20.75.2q-14.74,0-21.15-1.46-5.31-1.79-7.7-5.21a44.6,44.6,0,0,1-10.66,7.67l-3.05-7.94a27.09,27.09,0,0,0,8.13-4.78v-17.2h-6.51V162.6h15.07V185a5,5,0,0,0,1.11,3.27,8.05,8.05,0,0,0,3.3,2.27,21.2,21.2,0,0,0,6.31,1.18q4.12.28,15.44.28Q207.58,192.05,212.86,191.55Zm-47.71-37.92-8.37,3.65q-1.33-2.82-8.37-13.81l7.6-3.39A113.51,113.51,0,0,1,165.14,153.64Zm34.46,24.67h-7.54V189.4H183.7V178.31H176.5V189.6h-8.63V152.28h11.46q-1.13-.7-7.54-4.42l3.62-3.22h-8.3V138.4H205l3.45,4.42a63.49,63.49,0,0,1-13.55,9.46h13.48v31.48a5.05,5.05,0,0,1-2.16,4.37,9,9,0,0,1-5.38,1.54h-.13l-6.54-.07-.66-7.14h4.35q1.76,0,1.76-1.63Zm-15.9-15.77v-4.15H176.5v4.15Zm-7.21,9.79h7.21V168H176.5Zm3.12-27.69,8,4.88a59.2,59.2,0,0,0,7.47-4.88Zm12.45,13.75v4.15h7.54v-4.15Zm0,13.95h7.54V168h-7.54Z"/><path class="cls-1" d="M251.56,159.75h-17.9v38.48H224.9V139.06h26.66Zm-8.17-12.05v-3.52h-9.73v3.52Zm0,7.37v-3.49h-9.73v3.49Zm11,30.78q-4.68,7.7-16.2,10l-2.49-6.18q8.57-2,12.25-7.4H236.19v-6h13.95l0-3.55H237.42v-5.84h6.34l-2.12-4.28,7.21-1.76,2.72,6h5.54l3.09-6.11,7.47,1.76-2.86,4.35h6.61v5.84H257.84l0,3.55h14.64v6H260.83q3.32,4.18,10.33,7l-.53.8h2.56a2.25,2.25,0,0,0,1.46-.55,1.68,1.68,0,0,0,.66-1.34V159.75H256.81V139.06H284v52.49a5.35,5.35,0,0,1-2.17,4.33,8.1,8.1,0,0,1-5.23,1.74h-6.94l-.63-5.21-2.09,3.15A26.32,26.32,0,0,1,254.42,185.84Zm10.66-38.15H275.3v-3.52H265.08Zm10.23,3.88H265.08v3.49H275.3Z"/><path class="cls-1" d="M320,169.81a6.8,6.8,0,1,1-2-4.81A6.56,6.56,0,0,1,320,169.81Z"/><path class="cls-1" d="M365.44,188.43H356v10h-6.81v-10H339.11v-6.67h10.13v-3.52h-8.17v-25.9h8.3v-3.55h-9.1v-6.24h9.1V137.7H356v4.85h9.4v6.24H356v3.55h8.23v25.9H356v3.52h9.4ZM346.38,162.8h3.55v-4.75h-3.55Zm3.55,4.55h-3.55v5.25h3.55Zm5.58-4.55h3.39v-4.75h-3.39Zm3.39,4.55h-3.39v5.25h3.39Zm35.1-8.07H375.3v-3.62a50.92,50.92,0,0,1-8.17,5.64l-2.79-5.91a40.91,40.91,0,0,0,8.73-7,33.21,33.21,0,0,0,7.11-10h7.77q1.23,2.76,6.21,7.72a44,44,0,0,0,11.19,8.12l-3.75,6.41a44.13,44.13,0,0,1-7.6-5Zm-15.77,26.43h-4.65V198H367.4V162.4h16.73v30a4.83,4.83,0,0,1-1.39,3.62,5.19,5.19,0,0,1-3.79,1.36h-3.39l-.63-6h2q1.29,0,1.29-1.36Zm0-13.65v-4h-4.65v4Zm-4.65,8.7h4.65v-4.08h-4.65Zm4.18-27.36H391.4a38.72,38.72,0,0,1-6.94-8.13A51.07,51.07,0,0,1,377.76,153.4ZM392,187.27h-5.64V163.5H392Zm8.87,4.65a5.42,5.42,0,0,1-5.51,5.51h-5.78l-.83-6.34h4.08a1.34,1.34,0,0,0,1-.46,1.45,1.45,0,0,0,.45-1V161.31h6.61Z"/><path class="cls-1" d="M479.45,189.46,478,197.13H475.9l-21.15.2q-13.75,0-20.09-1.43-5.38-1.79-7.7-5.15a44.57,44.57,0,0,1-10.66,7.67l-3.05-7.94a29.91,29.91,0,0,0,8.83-5.25v-16.8h-7.21v-7.21h15.84v22a4.68,4.68,0,0,0,1,3,8,8,0,0,0,3.55,2.21,21,21,0,0,0,6.08,1.15q3.52.2,10.56.2Q471.95,189.83,479.45,189.46Zm-47.18-37.82-8.37,4.28a72.61,72.61,0,0,0-4.07-6.69q-3.17-4.83-4.76-6.82l7.54-4A116.84,116.84,0,0,1,432.27,151.64ZM454.22,173q-6,10.56-19.36,14.38l-3.55-7.07q10.69-3.32,14.88-10.53H433.1v-7.27h15.77v-7.21H434.46v-7h7.11l-4-8.23,8.77-2.26q1.56,3.15,4.85,10.49h5.45q1.26-2.42,4.68-10.49l9.1,2.13q-1.63,3.29-4.62,8.37h8.37v7H458l.07,7.21h17.56v7.27H462.48q5.44,6.24,15.14,9.93l-4.81,7.47Q460.56,182.79,454.22,173Z"/><path class="cls-1" d="M531.41,153.54h9v8.7h-9v6.14q0,14.08-8.1,21.62t-23.71,7.9l-1.13-8.73q13.35-.6,18.53-6.16t5.18-14.63v-6.14H507.77v16.14H498.4V162.24h-9.3v-8.7h9.3V139.82h9.36v13.71h14.41V138.86h9.23Z"/><path class="cls-1" d="M570.15,163.46q-3.52,19.72-13.45,31.21l-7-5.21a59.33,59.33,0,0,0,8.62-15.24,62.83,62.83,0,0,0,3.37-11.69Zm11.92,34.37h-9.53V158.38H553.18V150h19.36V139.39h9.53V150h19.22v8.37H582.07Zm23.21-8.1L598,195a59.69,59.69,0,0,1-8.23-15.26,75.81,75.81,0,0,1-4.48-16.19l8.4-1.36a68.82,68.82,0,0,0,3.87,12.6A84.83,84.83,0,0,0,605.28,189.73Zm-2.66-48.14a7.06,7.06,0,0,1-2.14,5.21,7.18,7.18,0,0,1-5.26,2.13,7.53,7.53,0,0,1-5.33-2.06,6.74,6.74,0,0,1-2.21-5.15,6.87,6.87,0,0,1,2.17-5.21,7.5,7.5,0,0,1,5.36-2.06,7.34,7.34,0,0,1,5.23,2.06A6.72,6.72,0,0,1,602.62,141.58Zm-3.19,0a3.89,3.89,0,0,0-1.31-2.91,4.21,4.21,0,0,0-3-1.25,4.22,4.22,0,0,0,0,8.43,4.31,4.31,0,0,0,4.28-4.28Z"/><path class="cls-1" d="M667.16,173.72H618.35v-8.83h48.81Z"/><path class="cls-1" d="M730,172.73l-5,7.87a98.53,98.53,0,0,0-22.81-14.81v32.37h-9.7v-59.9h9.79V156Q715,161.41,730,172.73Z"/><rect class="cls-1" x="644" y="17.63" width="230" height="2"/><rect class="cls-1" y="18.13" width="230" height="2"/><rect class="cls-1" y="221.13" width="874" height="2"/><rect class="cls-1" y="18.13" width="2" height="205"/><rect class="cls-1" x="872" y="18.13" width="2" height="205"/></g></g></svg>