<?xml version="1.0" encoding="UTF-8" standalone="no"?>
<svg width="140px" height="140px" viewBox="0 0 140 140" version="1.1" xmlns="http://www.w3.org/2000/svg" xmlns:xlink="http://www.w3.org/1999/xlink">
    <!-- Generator: Sketch 50.2 (55047) - http://www.bohemiancoding.com/sketch -->
    <title>flow1</title>
    <desc>Created with Sketch.</desc>
    <defs></defs>
    <g id="flow1" stroke="none" stroke-width="1" fill="none" fill-rule="evenodd">
        <g id="Group-15" transform="translate(4.000000, 4.000000)">
            <path d="M131.9998,66.5001 C131.9998,30.3252424 102.674658,1.0001 66.4998,1.0001 C30.3255958,1.0001 0.9998,30.3255889 0.9998,66.5001 C0.9998,102.674611 30.3255958,132.0001 66.4998,132.0001 C102.674658,132.0001 131.9998,102.674958 131.9998,66.5001 Z" id="Stroke-1" stroke="#C8161E"></path>
            <g id="Group-11" transform="translate(33.000000, 28.000000)" fill="#C8161E">
                <path d="M60.1776,71.5108 C60.0926,71.8148 59.8136,72.0248 59.4996,72.0248 L4.0836,72.0248 C3.7866,72.0248 3.6056,71.8568 3.5326,71.7538 C3.4556,71.6508 3.3326,71.4398 3.3766,71.2458 L10.8116,50.8558 L10.8116,50.8618 L15.9626,36.7398 L15.9986,36.6428 C16.0776,36.3338 16.3546,36.1218 16.6706,36.1218 L72.0856,36.1218 C72.5586,36.1218 72.6786,36.7998 72.7096,37.1378 L60.1776,71.5108 Z M3.3896,17.2188 C3.3896,16.7238 3.7926,16.3118 4.2956,16.3118 L10.8116,16.3118 L10.8116,43.5938 L3.3896,63.8588 L3.3896,17.2188 Z M13.2906,2.6988 L39.2906,2.6988 L39.2906,21.2708 L57.8626,21.2708 L57.8626,33.6518 L16.6706,33.6518 C16.4936,33.6518 16.3196,33.6618 16.1506,33.6928 C14.9406,33.8928 13.9376,34.7688 13.6416,35.8938 L13.2906,36.8488 L13.2906,2.6988 Z M41.7626,4.4458 L56.1096,18.7908 L41.7626,18.7908 L41.7626,4.4458 Z M64.3856,24.9818 C64.8806,24.9818 65.2916,25.3868 65.2916,25.8888 L65.2916,33.6518 L60.3336,33.6518 L60.3336,24.9818 L64.3856,24.9818 Z M72.0856,33.6518 L67.7636,33.6518 L67.7636,25.8888 C67.7636,24.0208 66.2466,22.5018 64.3856,22.5018 L60.3336,22.5018 L60.3336,19.5168 L59.7246,18.9058 L59.7246,18.8998 L50.6926,9.8668 L41.0386,0.2198 L10.8116,0.2198 L10.8116,13.8398 L4.2956,13.8398 C2.4266,13.8398 0.9096,15.3568 0.9096,17.2188 L0.9096,71.3068 L0.9156,71.3068 C0.9096,72.0078 1.1276,72.6908 1.5626,73.2578 C2.1666,74.0508 3.0856,74.5038 4.0836,74.5038 L59.4996,74.5038 C60.9326,74.5038 62.1916,73.5368 62.5336,72.2618 L75.1936,37.5488 L75.1936,37.3258 C75.1936,35.1978 73.8876,33.6518 72.0856,33.6518 Z" id="Fill-3"></path>
                <path d="M20.7205,21.2706 L33.1015,21.2706 C33.7835,21.2706 34.3405,20.7126 34.3405,20.0306 C34.3405,19.3466 33.7835,18.7916 33.1015,18.7916 L20.7205,18.7916 C20.0355,18.7916 19.4805,19.3466 19.4805,20.0306 C19.4805,20.7126 20.0355,21.2706 20.7205,21.2706" id="Fill-5"></path>
                <path d="M20.7205,12.6007 L33.1015,12.6007 C33.7835,12.6007 34.3405,12.0447 34.3405,11.3617 C34.3405,10.6787 33.7835,10.1217 33.1015,10.1217 L20.7205,10.1217 C20.0355,10.1217 19.4805,10.6787 19.4805,11.3617 C19.4805,12.0447 20.0355,12.6007 20.7205,12.6007" id="Fill-7"></path>
                <path d="M20.7205,29.9317 L50.4325,29.9317 C51.1155,29.9317 51.6715,29.3827 51.6715,28.6927 C51.6715,28.0097 51.1155,27.4607 50.4325,27.4607 L20.7205,27.4607 C20.0355,27.4607 19.4805,28.0097 19.4805,28.6927 C19.4805,29.3827 20.0355,29.9317 20.7205,29.9317" id="Fill-9"></path>
            </g>
        </g>
        <text id="書類準備" font-family="MeiryoUI-Bold, Meiryo UI" font-size="24" font-weight="bold" letter-spacing="0.1" fill="#000000">
            <tspan x="22" y="80">書類準備</tspan>
        </text>
    </g>
</svg>