<?xml version="1.0" encoding="UTF-8" standalone="no"?>
<svg width="103px" height="42px" viewBox="0 0 103 42" version="1.1" xmlns="http://www.w3.org/2000/svg" xmlns:xlink="http://www.w3.org/1999/xlink">
    <!-- Generator: Sketch 50.2 (55047) - http://www.bohemiancoding.com/sketch -->
    <title>title-decoration</title>
    <desc>Created with Sketch.</desc>
    <defs>
        <polygon id="path-1" points="0 0.3624 57.6099 0.3624 57.6099 1.3624 0 1.3624"></polygon>
        <polygon id="path-3" points="0 0.6378 57.6099 0.6378 57.6099 1.6378 0 1.6378"></polygon>
        <polygon id="path-5" points="0.4574 0.3624 30.55 0.3624 30.55 1.3624 0.4574 1.3624"></polygon>
        <polygon id="path-7" points="0.4574 0.6378 30.55 0.6378 30.55 1.6378 0.4574 1.6378"></polygon>
    </defs>
    <g id="title-decoration" stroke="none" stroke-width="1" fill="none" fill-rule="evenodd">
        <g id="Group-7" transform="translate(0.000000, 17.000000)">
            <g id="Group-3">
                <mask id="mask-2" fill="white">
                    <use xlink:href="#path-1"></use>
                </mask>
                <g id="Clip-2"></g>
                <path d="M57.6099,0.3624 L-0.0001,0.3624" id="Stroke-1" stroke="#C8161E" stroke-width="0.495" mask="url(#mask-2)"></path>
            </g>
            <g id="Group-6" transform="translate(0.000000, 7.000000)">
                <mask id="mask-4" fill="white">
                    <use xlink:href="#path-3"></use>
                </mask>
                <g id="Clip-5"></g>
                <path d="M57.6099,0.6378 L-0.0001,0.6378" id="Stroke-4" stroke="#C8161E" stroke-width="0.495" mask="url(#mask-4)"></path>
            </g>
        </g>
        <polygon id="Fill-8" fill="#C8161E" points="41.193 -0.0003 23.56 17.6347 31.96 17.6347 41.193 8.4007 50.426 17.6347 58.826 17.6347"></polygon>
        <polygon id="Fill-9" fill="#C8161E" points="50.4261 24.3663 41.1931 33.5993 31.9601 24.3663 23.5601 24.3663 24.3941 25.2003 36.9941 37.7993 41.1931 42.0003 45.3921 37.7993 57.9911 25.2003 58.8261 24.3663"></polygon>
        <polygon id="Fill-10" fill="#C8161E" points="57.9915 -0.0003 49.5925 8.4007 53.7915 12.5997 57.9915 8.4007 70.5905 21.0007 57.9915 33.5997 53.7915 29.4007 49.5925 33.5997 53.7915 37.7997 57.9915 41.9997 62.1905 37.7997 74.7905 25.2007 78.9895 21.0007"></polygon>
        <g id="Group-17" transform="translate(72.000000, 17.000000)">
            <g id="Group-13">
                <mask id="mask-6" fill="white">
                    <use xlink:href="#path-5"></use>
                </mask>
                <g id="Clip-12"></g>
                <path d="M30.5504,0.3624 L0.4574,0.3624" id="Stroke-11" stroke="#C8161E" stroke-width="0.495" mask="url(#mask-6)"></path>
            </g>
            <g id="Group-16" transform="translate(0.000000, 7.000000)">
                <mask id="mask-8" fill="white">
                    <use xlink:href="#path-7"></use>
                </mask>
                <g id="Clip-15"></g>
                <path d="M30.5504,0.6378 L0.4574,0.6378" id="Stroke-14" stroke="#C8161E" stroke-width="0.495" mask="url(#mask-8)"></path>
            </g>
        </g>
    </g>
</svg>