<?xml version="1.0" encoding="UTF-8" standalone="no"?>
<svg width="150px" height="150px" viewBox="0 0 150 150" version="1.1" xmlns="http://www.w3.org/2000/svg" xmlns:xlink="http://www.w3.org/1999/xlink">
    <!-- Generator: Sketch 50.2 (55047) - http://www.bohemiancoding.com/sketch -->
    <title>slickNext</title>
    <desc>Created with Sketch.</desc>
    <defs>
        <filter x="-5.8%" y="-4.2%" width="111.7%" height="111.7%" filterUnits="objectBoundingBox" id="filter-1">
            <feOffset dx="0" dy="2" in="SourceAlpha" result="shadowOffsetOuter1"></feOffset>
            <feGaussianBlur stdDeviation="2" in="shadowOffsetOuter1" result="shadowBlurOuter1"></feGaussianBlur>
            <feColorMatrix values="0 0 0 0 0   0 0 0 0 0   0 0 0 0 0  0 0 0 0.5 0" type="matrix" in="shadowBlurOuter1" result="shadowMatrixOuter1"></feColorMatrix>
            <feMerge>
                <feMergeNode in="shadowMatrixOuter1"></feMergeNode>
                <feMergeNode in="SourceGraphic"></feMergeNode>
            </feMerge>
        </filter>
    </defs>
    <g id="slickNext" stroke="none" stroke-width="1" fill="none" fill-rule="evenodd">
        <g id="Group" filter="url(#filter-1)" transform="translate(15.000000, 15.000000)">
            <path d="M120,60 C120,93.137 93.138,120 60,120 C26.863,120 0,93.137 0,60 C0,26.863 26.863,0 60,0 C93.138,0 120,26.863 120,60" id="Fill-2" fill="#C8161E"></path>
            <path d="M81.6992,57.6221 L51.7412,27.6741 C50.4272,26.3621 48.2972,26.3621 46.9782,27.6741 C45.6652,28.9841 45.6652,31.1141 46.9782,32.4261 L74.5602,59.9991 L46.9822,87.5701 C45.6682,88.8821 45.6682,91.0121 46.9822,92.3261 C48.2972,93.6381 50.4292,93.6381 51.7442,92.3261 L81.7032,62.3771 C82.9982,61.0801 82.9982,58.9171 81.6992,57.6221" id="Fill-4" fill="#FFFFFF"></path>
        </g>
    </g>
</svg>