<?xml version="1.0" encoding="UTF-8" standalone="no"?>
<svg width="50px" height="136px" viewBox="0 0 50 136" version="1.1" xmlns="http://www.w3.org/2000/svg" xmlns:xlink="http://www.w3.org/1999/xlink">
    <!-- Generator: Sketch 50.2 (55047) - http://www.bohemiancoding.com/sketch -->
    <title>bottle</title>
    <desc>Created with Sketch.</desc>
    <defs>
        <polygon id="path-1" points="0 0 50.013 0 50.013 136.4 0 136.4"></polygon>
    </defs>
    <g id="bottle" stroke="none" stroke-width="1" fill="none" fill-rule="evenodd">
        <mask id="mask-2" fill="white">
            <use xlink:href="#path-1"></use>
        </mask>
        <g id="Clip-2"></g>
        <path d="M44.2049,72.001 C45.0409,74.266 45.4679,76.661 45.4669,79.075 L45.4669018,81.84 L4.54689825,81.84 L4.5469,79.075 C4.5459,76.661 4.9729,74.266 5.8089,72.001 L18.9189,36.417 C19.9389,33.65 20.4609,30.726 20.4599,27.778 L20.4599,13.64 L29.5539,13.64 L29.5539,27.772 C29.5529,30.719 30.0739,33.644 31.0949,36.41 L44.2049,72.001 Z M4.5469,122.76 L45.4669,122.76 L45.4669,86.387 L4.5469,86.387 L4.5469,122.76 Z M45.4669,129.58 C45.4669,130.836 44.4489,131.854 43.1929,131.854 L6.8199,131.854 C5.5639,131.854 4.5469,130.836 4.5469,129.58 L4.5469,127.307 L45.4669,127.307 L45.4669,129.58 Z M20.4599,9.094 L29.5539,9.094 L29.5539,4.547 L20.4599,4.547 L20.4599,9.094 Z M34.1009,2.273 C34.1009,1.018 33.0819,0 31.8269,0 L18.1859,0 C16.9319,0 15.9129,1.018 15.9129,2.273 L15.9129,27.772 C15.9139,30.186 15.4869,32.58 14.6509,34.846 L1.5409,70.43 C0.5199,73.198 -0.0021,76.125 -0.0001,79.075 L-0.0001,129.58 C-0.0001,133.347 3.0539,136.4 6.8199,136.4 L43.1929,136.4 C46.9599,136.4 50.0139,133.347 50.0139,129.58 L50.0139,79.075 C50.0149,76.128 49.4919,73.203 48.4729,70.437 L35.3619,34.846 C34.5259,32.58 34.0999,30.186 34.1009,27.772 L34.1009,2.273 Z" id="Fill-1" fill="#F2F2F2" mask="url(#mask-2)"></path>
    </g>
</svg>