<svg xmlns="http://www.w3.org/2000/svg" viewBox="0 0 645 645"><defs><style>.cls-1{fill:#fff;}.cls-2,.cls-4{fill:#c8161e;}.cls-2,.cls-3{opacity:0.21;}</style></defs><title> smallBottle_1</title><g id="Layer_2" data-name="Layer 2"><g id="BACKGROUND"><rect class="cls-1" width="645" height="645"/><rect class="cls-2" x="189.88" y="550.4" width="264.25" height="13.23"/><g class="cls-3"><path class="cls-4" d="M348.67,108.17A6.67,6.67,0,0,0,342,101.5H302a6.67,6.67,0,0,0-6.67,6.67v74.77a59.89,59.89,0,0,1-3.7,20.75L253.19,308a73.13,73.13,0,0,0-4.52,25.35V481.5a20,20,0,0,0,20,20H375.33a20,20,0,0,0,20-20V333.39a73.13,73.13,0,0,0-4.52-25.33L352.37,203.69a59.89,59.89,0,0,1-3.7-20.75Zm-40,6.67h26.67v13.33H308.67ZM382,481.5a6.67,6.67,0,0,1-6.67,6.67H268.67A6.67,6.67,0,0,1,262,481.5v-6.67H382Zm0-20H262V354.83H382Zm-3.7-148.85a59.89,59.89,0,0,1,3.7,20.75v8.11H262v-8.11a59.89,59.89,0,0,1,3.7-20.75l38.45-104.35A73.13,73.13,0,0,0,308.67,183V141.5h26.67v41.44a73.13,73.13,0,0,0,4.52,25.33Z"/></g></g></g></svg>