<?xml version="1.0" encoding="UTF-8" standalone="no"?>
<svg width="140px" height="25px" viewBox="0 0 140 25" version="1.1" xmlns="http://www.w3.org/2000/svg" xmlns:xlink="http://www.w3.org/1999/xlink">
    <!-- Generator: Sketch 50.2 (55047) - http://www.bohemiancoding.com/sketch -->
    <title>logo</title>
    <desc>Created with Sketch.</desc>
    <defs></defs>
    <g id="logo" stroke="none" stroke-width="1" fill="none" fill-rule="evenodd">
        <polygon id="Fill-1" fill="#000000" points="18.815 23.3786 21.551 23.3786 21.551 5.6386 18.815 5.6386"></polygon>
        <polygon id="Fill-2" fill="#000000" points="12.3642 5.6384 7.6682 17.0784 2.7362 5.6384 0.0002 5.6384 0.0002 23.3784 2.7362 23.3784 2.7362 12.3464 6.4102 20.7574 6.8252 20.7574 8.2762 20.7574 8.6902 20.7574 12.3642 12.3464 12.3642 23.3784 15.1022 23.3784 15.1022 5.6384"></polygon>
        <polygon id="Fill-3" fill="#000000" points="66.4912 18.0579 58.5772 5.6379 55.8402 5.6379 55.8402 23.3779 58.5772 23.3779 58.5772 10.6949 66.4792 23.3779 66.4912 23.3689 66.4912 23.3779 69.2282 23.3779 69.2282 5.6379 66.4912 5.6379"></polygon>
        <path d="M43.9766,16.9358 L46.4996,9.4138 L49.0246,16.9358 L43.9766,16.9358 Z M47.2536,5.6378 L45.6036,5.6378 L45.3176,5.6378 L38.9416,23.2138 L32.7356,12.5688 L38.4416,5.6378 L35.1426,5.6378 L27.9056,14.6498 L27.9056,5.6378 L25.1686,5.6378 L25.1686,23.3778 L27.9056,23.3778 L27.9056,18.0588 L30.9616,14.6108 L35.8076,23.3778 L38.8816,23.3778 L39.0376,23.3778 L41.8156,23.3778 L43.1446,19.4148 L49.8556,19.4148 L51.1856,23.3778 L54.1196,23.3778 L47.6826,5.6378 L47.2536,5.6378 Z" id="Fill-4" fill="#000000"></path>
        <polygon id="Fill-5" fill="#000000" points="116.3564 5.638 113.0574 5.638 105.8204 14.65 105.8204 5.638 103.0844 5.638 103.0844 23.378 105.8204 23.378 105.8204 18.059 108.8774 14.611 113.7224 23.378 116.9524 23.378 110.6504 12.569"></polygon>
        <path d="M91.2178,16.9358 L93.7418,9.4138 L96.2668,16.9358 L91.2178,16.9358 Z M94.4958,5.6378 L92.8458,5.6378 L92.5598,5.6378 L86.1238,23.3778 L89.0568,23.3778 L90.3868,19.4148 L97.0978,19.4148 L98.4278,23.3778 L101.3608,23.3778 L94.9248,5.6378 L94.4958,5.6378 Z" id="Fill-6" fill="#000000"></path>
        <g id="Group-15" transform="translate(72.000000, -0.878400)">
            <path d="M7.4385,21.5857 L3.6325,21.5857 L3.6325,16.3427 L7.7355,16.3427 C9.7435,16.3427 10.5855,17.6927 10.5855,19.0307 C10.5855,20.3697 9.7675,21.5857 7.4385,21.5857 Z M3.6325,8.9057 L7.5125,8.9057 C9.5445,8.9057 10.2635,10.2817 10.2635,11.3227 C10.2635,12.5377 9.4705,13.9527 7.2895,13.9527 L3.6325,13.9527 L3.6325,8.9057 Z M10.1895,15.0157 C11.6265,14.6197 12.9655,13.7027 12.9655,11.0997 C12.9655,8.6757 11.5025,6.6927 8.3045,6.5317 L8.3045,6.5167 L3.6325,6.5167 L0.8965,6.5167 L0.8965,8.9057 L0.8965,13.9527 L0.8965,16.3427 L0.8965,21.5857 L0.8965,24.2567 L3.6325,24.2567 L8.3045,24.2567 L8.3045,24.2307 C11.7675,23.9647 13.2625,21.6307 13.2625,19.1807 C13.2625,16.5777 11.6525,15.3137 10.1895,15.0157 Z" id="Fill-7" fill="#000000"></path>
            <path d="M67.4385,0.9475 C62.1695,0.2645 60.4535,4.8695 60.4535,4.8695 C65.8775,5.5525 67.4385,0.9475 67.4385,0.9475" id="Fill-9" fill="#8DC21F"></path>
            <path d="M58.9072,14.2688 L58.9072,5.2358 C58.9072,4.3508 58.1902,3.6328 57.3042,3.6328 C56.4192,3.6328 55.7022,4.3508 55.7022,5.2358 L55.7022,14.2688 C55.7022,15.1538 56.4192,15.8718 57.3042,15.8718 C58.1902,15.8718 58.9072,15.1538 58.9072,14.2688" id="Fill-11" fill="#F5AB18"></path>
            <path d="M63.1855,6.3655 C62.4465,5.8775 61.4515,6.0815 60.9645,6.8205 C60.4775,7.5595 60.6815,8.5535 61.4205,9.0405 C63.5335,10.4345 64.7935,12.7755 64.7935,15.3025 C64.7935,19.4335 61.4345,22.7945 57.3045,22.7945 C53.1745,22.7945 49.8155,19.4335 49.8155,15.3025 C49.8155,12.7745 51.0775,10.4335 53.1905,9.0405 C53.9295,8.5535 54.1325,7.5595 53.6465,6.8205 C53.1595,6.0805 52.1645,5.8785 51.4255,6.3635 C48.4095,8.3525 46.6095,11.6935 46.6095,15.3025 C46.6095,21.2005 51.4075,25.9995 57.3045,25.9995 C63.2025,25.9995 67.9995,21.2005 67.9995,15.3025 C67.9995,11.6935 66.2005,8.3525 63.1855,6.3655" id="Fill-13" fill="#F5AB18"></path>
        </g>
    </g>
</svg>